<?xml version="1.0" standalone="no"?>
<!DOCTYPE svg PUBLIC "-//W3C//DTD SVG 20010904//EN"
 "http://www.w3.org/TR/2001/REC-SVG-20010904/DTD/svg10.dtd">
<svg version="1.0" xmlns="http://www.w3.org/2000/svg"
 width="700.000000pt" height="700.000000pt" viewBox="0 0 700.000000 700.000000"
 preserveAspectRatio="xMidYMid meet">
<metadata>
Created by potrace 1.14, written by Peter Selinger 2001-2017
</metadata>
<g transform="translate(0.000000,700.000000) scale(0.100000,-0.100000)"
fill="#000000" stroke="none">
<path d="M3256 6545 c-330 -54 -624 -199 -860 -425 -245 -235 -394 -501 -468
-837 -19 -87 -22 -135 -26 -430 l-4 -333 -102 0 c-263 0 -424 -116 -472 -339
-21 -98 -21 -3014 0 -3112 36 -170 142 -280 313 -324 50 -13 294 -15 1860 -15
1297 0 1817 3 1855 11 167 36 288 158 323 326 21 100 22 3014 1 3114 -28 133
-101 231 -213 287 -77 39 -143 52 -263 52 l-98 0 -4 333 c-4 295 -7 343 -26
430 -72 324 -209 576 -441 808 -232 232 -487 370 -809 440 -129 27 -435 35
-566 14z m453 -291 c202 -30 410 -114 574 -232 105 -76 259 -239 326 -346 61
-99 122 -235 151 -339 40 -141 50 -248 50 -539 l0 -278 -1310 0 -1310 0 0 278
c0 369 20 495 109 702 59 136 135 251 242 364 159 167 328 274 544 342 200 63
414 79 624 48z m-33 -2924 c253 -64 445 -250 525 -510 34 -107 34 -283 0 -390
-100 -324 -373 -530 -701 -530 -328 0 -601 206 -701 530 -34 107 -34 283 0
390 80 258 271 445 521 510 103 26 252 26 356 0z"/>
</g>
</svg>
