<svg
  fill="#000000"
  xmlns="http://www.w3.org/2000/svg"
  viewBox="0 0 24 24"
>
  <g stroke="#1fb141">
    <path
      d="M 12 1 C 8.6761905 1 6 3.6761905 6 7 L 6 8 C 5.4777778 8 4.9453899 8.1913289 4.5683594 8.5683594 C 4.1913289 8.9453899 4 9.4777778 4 10 L 4 20 C 4 20.522222 4.1913289 21.05461 4.5683594 21.431641 C 4.9453899 21.808671 5.4777778 22 6 22 L 18 22 C 18.522222 22 19.05461 21.808671 19.431641 21.431641 C 19.808671 21.05461 20 20.522222 20 20 L 20 10 C 20 9.4777778 19.808671 8.9453899 19.431641 8.5683594 C 19.05461 8.1913289 18.522222 8 18 8 L 18 7 C 18 3.6761905 15.32381 1 12 1 z M 12 3 C 14.27619 3 16 4.7238095 16 7 L 16 8 L 8 8 L 8 7 C 8 4.7238095 9.7238095 3 12 3 z M 12 13 C 13.1 13 14 13.9 14 15 C 14 16.1 13.1 17 12 17 C 10.9 17 10 16.1 10 15 C 10 13.9 10.9 13 12 13 z"
    />
  </g>
</svg>
