<svg id="visual" viewBox="0 0 900 600" width="900" height="600" xmlns="http://www.w3.org/2000/svg" xmlns:xlink="http://www.w3.org/1999/xlink" version="1.1"><rect x="0" y="0" width="900" height="600" fill="#061c0b"></rect><defs><linearGradient id="grad1_0" x1="33.3%" y1="0%" x2="100%" y2="100%"><stop offset="20%" stop-color="#166829" stop-opacity="1"></stop><stop offset="80%" stop-color="#166829" stop-opacity="1"></stop></linearGradient></defs><defs><linearGradient id="grad1_1" x1="33.3%" y1="0%" x2="100%" y2="100%"><stop offset="20%" stop-color="#166829" stop-opacity="1"></stop><stop offset="80%" stop-color="#125824" stop-opacity="1"></stop></linearGradient></defs><defs><linearGradient id="grad1_2" x1="33.3%" y1="0%" x2="100%" y2="100%"><stop offset="20%" stop-color="#0f481f" stop-opacity="1"></stop><stop offset="80%" stop-color="#125824" stop-opacity="1"></stop></linearGradient></defs><defs><linearGradient id="grad1_3" x1="33.3%" y1="0%" x2="100%" y2="100%"><stop offset="20%" stop-color="#0f481f" stop-opacity="1"></stop><stop offset="80%" stop-color="#0d3819" stop-opacity="1"></stop></linearGradient></defs><defs><linearGradient id="grad1_4" x1="33.3%" y1="0%" x2="100%" y2="100%"><stop offset="20%" stop-color="#0a2a14" stop-opacity="1"></stop><stop offset="80%" stop-color="#0d3819" stop-opacity="1"></stop></linearGradient></defs><defs><linearGradient id="grad1_5" x1="33.3%" y1="0%" x2="100%" y2="100%"><stop offset="20%" stop-color="#0a2a14" stop-opacity="1"></stop><stop offset="80%" stop-color="#061c0b" stop-opacity="1"></stop></linearGradient></defs><defs><linearGradient id="grad2_0" x1="0%" y1="0%" x2="66.7%" y2="100%"><stop offset="20%" stop-color="#166829" stop-opacity="1"></stop><stop offset="80%" stop-color="#166829" stop-opacity="1"></stop></linearGradient></defs><defs><linearGradient id="grad2_1" x1="0%" y1="0%" x2="66.7%" y2="100%"><stop offset="20%" stop-color="#125824" stop-opacity="1"></stop><stop offset="80%" stop-color="#166829" stop-opacity="1"></stop></linearGradient></defs><defs><linearGradient id="grad2_2" x1="0%" y1="0%" x2="66.7%" y2="100%"><stop offset="20%" stop-color="#125824" stop-opacity="1"></stop><stop offset="80%" stop-color="#0f481f" stop-opacity="1"></stop></linearGradient></defs><defs><linearGradient id="grad2_3" x1="0%" y1="0%" x2="66.7%" y2="100%"><stop offset="20%" stop-color="#0d3819" stop-opacity="1"></stop><stop offset="80%" stop-color="#0f481f" stop-opacity="1"></stop></linearGradient></defs><defs><linearGradient id="grad2_4" x1="0%" y1="0%" x2="66.7%" y2="100%"><stop offset="20%" stop-color="#0d3819" stop-opacity="1"></stop><stop offset="80%" stop-color="#0a2a14" stop-opacity="1"></stop></linearGradient></defs><defs><linearGradient id="grad2_5" x1="0%" y1="0%" x2="66.7%" y2="100%"><stop offset="20%" stop-color="#061c0b" stop-opacity="1"></stop><stop offset="80%" stop-color="#0a2a14" stop-opacity="1"></stop></linearGradient></defs><g transform="translate(900, 0)"><path d="M0 486.7C-53.3 446.4 -106.5 406 -156.5 377.9C-206.5 349.7 -253.2 333.8 -306.2 306.2C-359.2 278.6 -418.5 239.2 -449.7 186.3C-480.8 133.3 -483.8 66.6 -486.7 0L0 0Z" fill="#0a2310"></path><path d="M0 405.6C-44.4 372 -88.8 338.3 -130.4 314.9C-172.1 291.4 -211 278.2 -255.1 255.1C-299.3 232.1 -348.8 199.4 -374.7 155.2C-400.7 111.1 -403.2 55.5 -405.6 0L0 0Z" fill="#0c3117"></path><path d="M0 324.5C-35.5 297.6 -71 270.7 -104.3 251.9C-137.7 233.1 -168.8 222.5 -204.1 204.1C-239.5 185.7 -279 159.5 -299.8 124.2C-320.6 88.9 -322.5 44.4 -324.5 0L0 0Z" fill="#0e401c"></path><path d="M0 243.4C-26.6 223.2 -53.3 203 -78.3 188.9C-103.2 174.9 -126.6 166.9 -153.1 153.1C-179.6 139.3 -209.3 119.6 -224.8 93.1C-240.4 66.6 -241.9 33.3 -243.4 0L0 0Z" fill="#105022"></path><path d="M0 162.2C-17.8 148.8 -35.5 135.3 -52.2 126C-68.8 116.6 -84.4 111.3 -102.1 102.1C-119.7 92.9 -139.5 79.7 -149.9 62.1C-160.3 44.4 -161.3 22.2 -162.2 0L0 0Z" fill="#146027"></path><path d="M0 81.1C-8.9 74.4 -17.8 67.7 -26.1 63C-34.4 58.3 -42.2 55.6 -51 51C-59.9 46.4 -69.8 39.9 -74.9 31C-80.1 22.2 -80.6 11.1 -81.1 0L0 0Z" fill="#166829"></path></g><g transform="translate(0, 600)"><path d="M0 -486.7C50.4 -451.5 100.8 -416.2 165.3 -399.1C229.8 -382.1 308.3 -383.3 344.2 -344.2C380 -305.1 373.2 -225.6 389.9 -161.5C406.5 -97.4 446.6 -48.7 486.7 0L0 0Z" fill="#0a2310"></path><path d="M0 -405.6C42 -376.2 84 -346.8 137.8 -332.6C191.5 -318.4 256.9 -319.4 286.8 -286.8C316.7 -254.2 311 -188 324.9 -134.6C338.8 -81.2 372.2 -40.6 405.6 0L0 0Z" fill="#0c3117"></path><path d="M0 -324.5C33.6 -301 67.2 -277.4 110.2 -266.1C153.2 -254.7 205.6 -255.5 229.5 -229.5C253.4 -203.4 248.8 -150.4 259.9 -107.7C271 -64.9 297.8 -32.5 324.5 0L0 0Z" fill="#0e401c"></path><path d="M0 -243.4C25.2 -225.7 50.4 -208.1 82.7 -199.6C114.9 -191 154.2 -191.7 172.1 -172.1C190 -152.5 186.6 -112.8 194.9 -80.7C203.3 -48.7 223.3 -24.4 243.4 0L0 0Z" fill="#105022"></path><path d="M0 -162.2C16.8 -150.5 33.6 -138.7 55.1 -133C76.6 -127.4 102.8 -127.8 114.7 -114.7C126.7 -101.7 124.4 -75.2 130 -53.8C135.5 -32.5 148.9 -16.2 162.2 0L0 0Z" fill="#146027"></path><path d="M0 -81.1C8.4 -75.2 16.8 -69.4 27.6 -66.5C38.3 -63.7 51.4 -63.9 57.4 -57.4C63.3 -50.8 62.2 -37.6 65 -26.9C67.8 -16.2 74.4 -8.1 81.1 0L0 0Z" fill="#166829"></path></g></svg>